<svg width="20" height="20" viewBox="0 0 20 20" xmlns="http://www.w3.org/2000/svg">
<path d="M7.82369 17.9661V13.5314C7.82369 12.9791 8.27141 12.5314 8.82369 12.5314H11.1715C11.7238 12.5314 12.1715 12.9791 12.1715 13.5314V17.9661C12.1715 18.5639 12.6606 19.0531 13.2584 19.0531H16.5193C17.1171 19.0531 17.6062 18.5639 17.6062 17.9661V11.3575C17.6062 10.8052 18.0539 10.3575 18.6062 10.3575H19.454C19.954 10.3575 20.1932 9.73792 19.8127 9.41184L10.7258 1.22712C10.3128 0.857561 9.68237 0.857561 9.26933 1.22712L0.182446 9.41184C-0.187116 9.73792 0.0411431 10.3575 0.541139 10.3575H1.38895C1.94124 10.3575 2.38895 10.8052 2.38895 11.3575V17.9661C2.38895 18.5639 2.87808 19.0531 3.4759 19.0531H6.73674C7.33456 19.0531 7.82369 18.5639 7.82369 17.9661Z"/>
<path d="M7.82369 17.9661V13.5314C7.82369 12.9791 8.27141 12.5314 8.82369 12.5314H11.1715C11.7238 12.5314 12.1715 12.9791 12.1715 13.5314V17.9661C12.1715 18.5639 12.6606 19.0531 13.2584 19.0531H16.5193C17.1171 19.0531 17.6062 18.5639 17.6062 17.9661V11.3575C17.6062 10.8052 18.0539 10.3575 18.6062 10.3575H19.454C19.954 10.3575 20.1932 9.73792 19.8127 9.41184L10.7258 1.22712C10.3128 0.857561 9.68237 0.857561 9.26933 1.22712L0.182446 9.41184C-0.187116 9.73792 0.0411431 10.3575 0.541139 10.3575H1.38895C1.94124 10.3575 2.38895 10.8052 2.38895 11.3575V17.9661C2.38895 18.5639 2.87808 19.0531 3.4759 19.0531H6.73674C7.33456 19.0531 7.82369 18.5639 7.82369 17.9661Z"/>
<path d="M7.82369 17.9661V13.5314C7.82369 12.9791 8.27141 12.5314 8.82369 12.5314H11.1715C11.7238 12.5314 12.1715 12.9791 12.1715 13.5314V17.9661C12.1715 18.5639 12.6606 19.0531 13.2584 19.0531H16.5193C17.1171 19.0531 17.6062 18.5639 17.6062 17.9661V11.3575C17.6062 10.8052 18.0539 10.3575 18.6062 10.3575H19.454C19.954 10.3575 20.1932 9.73792 19.8127 9.41184L10.7258 1.22712C10.3128 0.857561 9.68237 0.857561 9.26933 1.22712L0.182446 9.41184C-0.187116 9.73792 0.0411431 10.3575 0.541139 10.3575H1.38895C1.94124 10.3575 2.38895 10.8052 2.38895 11.3575V17.9661C2.38895 18.5639 2.87808 19.0531 3.4759 19.0531H6.73674C7.33456 19.0531 7.82369 18.5639 7.82369 17.9661Z"/>
</svg>
